<?xml version="1.0" encoding="UTF-8"?>
<svg xmlns="http://www.w3.org/2000/svg" xmlns:xlink="http://www.w3.org/1999/xlink" viewBox="0 0 48 48" width="48px" height="48px">
<g id="surface12668387">
<path style=" stroke:none;fill-rule:nonzero;fill:rgb(40.000001%,40.000001%,40.000001%);fill-opacity:1;" d="M 24 0 C 10.746094 0 0 10.746094 0 24 C 0 36.035156 8.863281 45.96875 20.414062 47.703125 L 20.414062 30.359375 L 14.472656 30.359375 L 14.472656 24.050781 L 20.414062 24.050781 L 20.414062 19.855469 C 20.414062 12.902344 23.796875 9.851562 29.574219 9.851562 C 32.339844 9.851562 33.804688 10.058594 34.496094 10.152344 L 34.496094 15.660156 L 30.558594 15.660156 C 28.105469 15.660156 27.25 17.984375 27.25 20.605469 L 27.25 24.054688 L 34.4375 24.054688 L 33.460938 30.363281 L 27.25 30.363281 L 27.25 47.757812 C 38.964844 46.164062 48 36.148438 48 24 C 48 10.746094 37.253906 0 24 0 Z M 24 0 "/>
</g>
</svg>
