<?xml version="1.0" encoding="UTF-8"?>
<svg xmlns="http://www.w3.org/2000/svg" xmlns:xlink="http://www.w3.org/1999/xlink" viewBox="0 0 48 48" width="48px" height="48px">
<g id="surface12620609">
<path style=" stroke:none;fill-rule:nonzero;fill:rgb(40.000001%,40.000001%,40.000001%);fill-opacity:1;" d="M 14.320312 3 C 8.085938 3 3 8.085938 3 14.320312 L 3 30.691406 C 3 36.914062 8.085938 42 14.320312 42 L 30.691406 42 C 36.914062 42 42 36.914062 42 30.679688 L 42 14.320312 C 42 8.085938 36.914062 3 30.679688 3 Z M 14.320312 6 L 30.679688 6 C 35.296875 6 39 9.703125 39 14.320312 L 39 30.679688 C 39 35.296875 35.296875 39 30.691406 39 L 14.320312 39 C 9.703125 39 6 35.296875 6 30.691406 L 6 14.320312 C 6 9.703125 9.703125 6 14.320312 6 Z M 34.5 9 C 33.667969 9 33 9.667969 33 10.5 C 33 11.332031 33.667969 12 34.5 12 C 35.332031 12 36 11.332031 36 10.5 C 36 9.667969 35.332031 9 34.5 9 Z M 22.5 12 C 16.722656 12 12 16.722656 12 22.5 C 12 28.277344 16.722656 33 22.5 33 C 28.277344 33 33 28.277344 33 22.5 C 33 16.722656 28.277344 12 22.5 12 Z M 22.5 15 C 26.660156 15 30 18.339844 30 22.5 C 30 26.660156 26.660156 30 22.5 30 C 18.339844 30 15 26.660156 15 22.5 C 15 18.339844 18.339844 15 22.5 15 Z M 22.5 15 "/>
</g>
</svg>
